<?xml version="1.0" encoding="utf-8"?>
<!-- Generator: Adobe Illustrator 24.2.1, SVG Export Plug-In . SVG Version: 6.00 Build 0)  -->
<svg version="1.1" id="Layer_1" xmlns="http://www.w3.org/2000/svg" xmlns:xlink="http://www.w3.org/1999/xlink" x="0px" y="0px"
	 viewBox="0 0 1366 768" style="enable-background:new 0 0 1366 768;" xml:space="preserve">
<style type="text/css">
	.st0{fill:#3C3B3A;}
</style>
<path id="Icon_map-gym" class="st0" d="M581.7,670.6c5.4,5.8,5.1,14.9-0.7,20.4l-31.3,29.2c-5.8,5.4-14.9,5.1-20.3-0.7L347.3,523.2
	c-5.4-5.9-5.1-15,0.7-20.4l31.3-29.2c5.8-5.4,14.9-5.1,20.3,0.7L581.7,670.6z M814.1,301.3c5.4,5.9,5.1,15-0.7,20.4L616.6,505.6
	c-5.8,5.4-14.9,5.1-20.3-0.7l-47-50.7c-5.4-5.9-5.1-15,0.7-20.4l196.8-183.9c5.8-5.4,14.9-5.1,20.3,0.7l0,0
	C767,250.6,814.1,301.3,814.1,301.3z M648.6,608c5.4,5.9,5.1,15-0.7,20.4l-31.3,29.2c-5.8,5.4-14.9,5.1-20.3-0.7l-182-196.3
	c-5.4-5.8-5.1-14.9,0.7-20.4l31.2-29.2c5.8-5.4,14.9-5.1,20.3,0.7L648.6,608z M951.9,308.3c5.4,5.9,5.1,15-0.7,20.4l-31.3,29.2
	c-5.8,5.4-14.9,5.1-20.3-0.7l-182-196.3c-5.4-5.8-5.1-15,0.7-20.4l31.4-29.3c5.8-5.4,14.9-5.1,20.3,0.7l0,0L951.9,308.3L951.9,308.3
	z M1018.8,245.8c5.4,5.9,5.1,14.9-0.7,20.4l-31.3,29.2c-5.8,5.4-14.9,5.1-20.3-0.7l0,0l-182-196.3c-5.4-5.8-5.1-14.9,0.7-20.4
	l31.3-29.3c5.8-5.4,14.8-5.1,20.2,0.7l0,0L1018.8,245.8z"/>
</svg>
