<?xml version="1.0" encoding="utf-8"?>
<!-- Generator: Adobe Illustrator 24.2.1, SVG Export Plug-In . SVG Version: 6.00 Build 0)  -->
<svg version="1.1" id="Layer_1" xmlns="http://www.w3.org/2000/svg" xmlns:xlink="http://www.w3.org/1999/xlink" x="0px" y="0px"
	 viewBox="0 0 1366 768" style="enable-background:new 0 0 1366 768;" xml:space="preserve">
<style type="text/css">
	.st0{fill:#3C3B3A;}
</style>
<path id="Icon_awesome-bowling-ball" class="st0" d="M683,35.7c-192.6,0-348.8,156.1-348.8,348.7s156.1,348.8,348.7,348.8
	s348.8-156.1,348.8-348.7l0,0c0-192.6-156-348.7-348.6-348.7C683.1,35.7,683.1,35.7,683,35.7z M503,294.5c-24.9,0-45-20.1-45-45
	s20.1-45,45-45s45,20.1,45,45C548,274.3,527.9,294.5,503,294.5C503.1,294.5,503,294.5,503,294.5L503,294.5z M593,159.5
	c0-24.9,20.1-45,45-45s45,20.1,45,45s-20.1,45-45,45l0,0C613.2,204.5,593,184.4,593,159.5L593,159.5L593,159.5z M660.5,362
	c-24.9,0-45-20.1-45-45s20.1-45,45-45s45,20.1,45,45l0,0C705.5,341.8,685.4,362,660.5,362C660.6,362,660.5,362,660.5,362L660.5,362z
	"/>
</svg>
