<?xml version="1.0" encoding="utf-8"?>
<!-- Generator: Adobe Illustrator 24.2.1, SVG Export Plug-In . SVG Version: 6.00 Build 0)  -->
<svg version="1.1" id="Layer_1" xmlns="http://www.w3.org/2000/svg" xmlns:xlink="http://www.w3.org/1999/xlink" x="0px" y="0px"
	 viewBox="0 0 1366 768" style="enable-background:new 0 0 1366 768;" xml:space="preserve">
<style type="text/css">
	.st0{fill:#3C3B3A;}
</style>
<path id="Icon_map-climbing" class="st0" d="M415.6,334.8c-4.9,10.1-7.5,21.3-7.5,32.6l2.8,174.6l-60.6,130
	c-10.3,19.2-3,43,16.1,53.3c18.9,10.1,42.5,3.2,52.9-15.5l66.6-142c1.5-3.4,2.6-6.9,3.1-10.6l0.4-5.4l-0.5-108l102.4,44.5
	l16.5,105.5c4.8,21.2,25.9,34.6,47.2,29.7c15.7-3.6,27.7-16.4,30.2-32.3c0.5-3.6,0.5-7.2,0.2-10.7l-20.2-127.4
	c-2.4-12.4-10.6-22.9-22-28.3l-91.5-40.5l58.3-101l28.9,36.6c3.1,3.4,6.9,6.1,11.1,7.8l110.1,32c16.7,3.6,33.2-6.9,36.8-23.6
	c3.2-14.7-4.6-29.6-18.6-35.3l-1.6-0.5l-95.7-28l-72-86c-11.1-11.9-25.9-19.7-42-22.2c-28.3-4.2-56.5,8.8-71.6,33.1L415.6,334.8z
	 M731.6,585.1l-7,52.3l-189.4,45.9l1.8,32.3h462c16.3,0.1,29.5-13,29.6-29.3v-0.1L1028.1,66l-63.3-14.7l-36.4,163.1l-60.8,25.4
	l-54,150.4l51.4,115l-14.4,44.2L731.6,585.1z M603,156.3c32.4-0.1,58.6-26.5,58.5-59c-0.1-32.4-26.5-58.6-59-58.5
	C570.1,38.9,544,65.2,544,97.6C544.1,130.1,570.5,156.4,603,156.3z M485.7,165.5c4.6-8,1.8-18.2-6.2-22.8c0,0-0.1,0-0.1-0.1
	L450.8,126c-8.1-4.6-18.4-1.8-23.1,6.2l-88,151.3c-4.6,8-1.9,18.2,6.1,22.9c0.1,0,0.1,0.1,0.2,0.1l28.7,16.5c8,4.6,18.3,2,23-6
	L485.7,165.5z"/>
</svg>
