<?xml version="1.0" encoding="utf-8"?>
<!-- Generator: Adobe Illustrator 24.2.1, SVG Export Plug-In . SVG Version: 6.00 Build 0)  -->
<svg version="1.1" id="Layer_1" xmlns="http://www.w3.org/2000/svg" xmlns:xlink="http://www.w3.org/1999/xlink" x="0px" y="0px"
	 viewBox="0 0 1366 768" style="enable-background:new 0 0 1366 768;" xml:space="preserve">
<style type="text/css">
	.st0{fill:#3C3B3A;}
</style>
<path id="Icon_awesome-basketball-ball" class="st0" d="M632.8,39c-63.1,8.9-122.6,35.1-171.8,75.7l108.8,108.8
	C609.9,170.3,632,105.6,632.8,39z M683,336.7l222-222C847.1,67,775.4,39.3,700.4,35.8c-0.1,85.7-29.2,168.8-82.5,235.8L683,336.7z
	 M413.2,162.5c-40.5,49.2-66.7,108.7-75.7,171.8c66.6-0.8,131.3-22.9,184.5-63L413.2,162.5z M795.9,449.6
	c67.1-53.3,150.2-82.3,235.8-82.5c-3.5-74.9-31.2-146.7-78.9-204.6l-222,222L795.9,449.6L795.9,449.6z M683,432.3l-222,222
	c57.9,47.6,129.7,75.3,204.6,78.9c0.2-85.7,29.3-168.7,82.5-235.8L683,432.3z M952.8,606.5c40.5-49.2,66.7-108.7,75.7-171.8
	c-66.6,0.9-131.2,23-184.5,63L952.8,606.5z M570.1,319.4c-67,53.4-150.1,82.5-235.8,82.5c3.5,74.9,31.2,146.7,78.9,204.6l222-222
	L570.1,319.4z M733.2,730c63.1-8.9,122.6-35.1,171.8-75.7L796.2,545.5C756.2,598.8,734.2,663.4,733.2,730L733.2,730z"/>
</svg>
